{
  "accessors": [
    {
      "bufferView": 2,
      "componentType": 5126,
      "count": 9730,
      "max": [
        0.88065600395202637,
        -0.3361470103263855,
        0.70385301113128662
      ],
      "min": [
        -0.88065600395202637,
        -0.96541899442672729,
        0.074579998850822449
      ],
      "type": "VEC3"
    },
    {
      "bufferView": 2,
      "byteOffset": 116760,
      "componentType": 5126,
      "count": 9730,
      "max": [
        1,
        1,
        1
      ],
      "min": [
        -1,
        -1,
        -1
      ],
      "type": "VEC3"
    },
    {
      "bufferView": 1,
      "componentType": 5126,
      "count": 9730,
      "max": [
        1,
        1
      ],
      "min": [
        0,
        0
      ],
      "type": "VEC2"
    },
    {
      "bufferView": 0,
      "componentType": 5125,
      "count": 57024,
      "max": [
        9729
      ],
      "min": [
        0
      ],
      "type": "SCALAR"
    },
    {
      "bufferView": 2,
      "byteOffset": 233520,
      "componentType": 5126,
      "count": 2102,
      "max": [
        0.35239401459693909,
        -0.2704710066318512,
        1.3911730051040649
      ],
      "min": [
        -0.10696300119161606,
        -0.60565400123596191,
        1.0319969654083252
      ],
      "type": "VEC3"
    },
    {
      "bufferView": 2,
      "byteOffset": 258744,
      "componentType": 5126,
      "count": 2102,
      "max": [
        0.99983435869216919,
        0.99962800741195679,
        0.99982494115829468
      ],
      "min": [
        -0.9994547963142395,
        -0.99922370910644531,
        -0.99950629472732544
      ],
      "type": "VEC3"
    },
    {
      "bufferView": 1,
      "byteOffset": 77840,
      "componentType": 5126,
      "count": 2102,
      "max": [
        0.94441002607345581,
        0.75848299264907837
      ],
      "min": [
        0.89403897523880005,
        0.68779802322387695
      ],
      "type": "VEC2"
    },
    {
      "bufferView": 0,
      "byteOffset": 228096,
      "componentType": 5125,
      "count": 12204,
      "max": [
        2101
      ],
      "min": [
        0
      ],
      "type": "SCALAR"
    },
    {
      "bufferView": 2,
      "byteOffset": 283968,
      "componentType": 5126,
      "count": 65532,
      "max": [
        1.9493340253829956,
        2.0105700492858887,
        1.9160070419311523
      ],
      "min": [
        -1.9493269920349121,
        -1.4981280565261841,
        -2.3991169929504395
      ],
      "type": "VEC3"
    },
    {
      "bufferView": 2,
      "byteOffset": 1070352,
      "componentType": 5126,
      "count": 65532,
      "max": [
        0.99997603893280029,
        0.99998199939727783,
        0.99997282028198242
      ],
      "min": [
        -0.99997639656066895,
        -0.99996531009674072,
        -0.99999535083770752
      ],
      "type": "VEC3"
    },
    {
      "bufferView": 1,
      "byteOffset": 94656,
      "componentType": 5126,
      "count": 65532,
      "max": [
        0.99970102310180664,
        0.98785197734832764
      ],
      "min": [
        0.00037500000325962901,
        0.00029900000663474202
      ],
      "type": "VEC2"
    },
    {
      "bufferView": 0,
      "byteOffset": 276912,
      "componentType": 5125,
      "count": 318066,
      "max": [
        65531
      ],
      "min": [
        0
      ],
      "type": "SCALAR"
    },
    {
      "bufferView": 2,
      "byteOffset": 1856736,
      "componentType": 5126,
      "count": 65532,
      "max": [
        1.9506429433822632,
        2.0105700492858887,
        1.9160219430923462
      ],
      "min": [
        -1.9505469799041748,
        -1.4974000453948975,
        -2.3987910747528076
      ],
      "type": "VEC3"
    },
    {
      "bufferView": 2,
      "byteOffset": 2643120,
      "componentType": 5126,
      "count": 65532,
      "max": [
        0.99999713897705078,
        0.99997401237487793,
        0.99997282028198242
      ],
      "min": [
        -0.99987798929214478,
        -0.99994373321533203,
        -0.99997198581695557
      ],
      "type": "VEC3"
    },
    {
      "bufferView": 1,
      "byteOffset": 618912,
      "componentType": 5126,
      "count": 65532,
      "max": [
        0.99970102310180664,
        0.98789197206497192
      ],
      "min": [
        0.00036000000545755029,
        0.00029900000663474202
      ],
      "type": "VEC2"
    },
    {
      "bufferView": 0,
      "byteOffset": 1549176,
      "componentType": 5125,
      "count": 323085,
      "max": [
        65531
      ],
      "min": [
        0
      ],
      "type": "SCALAR"
    },
    {
      "bufferView": 2,
      "byteOffset": 3429504,
      "componentType": 5126,
      "count": 28576,
      "max": [
        1.9499939680099487,
        2.0060648918151855,
        1.9137970209121704
      ],
      "min": [
        -1.9505469799041748,
        -1.4886250495910645,
        -2.3985669612884521
      ],
      "type": "VEC3"
    },
    {
      "bufferView": 2,
      "byteOffset": 3772416,
      "componentType": 5126,
      "count": 28576,
      "max": [
        0.99984556436538696,
        0.99998199939727783,
        0.99989616870880127
      ],
      "min": [
        -0.99994838237762451,
        -0.99994373321533203,
        -0.99998331069946289
      ],
      "type": "VEC3"
    },
    {
      "bufferView": 1,
      "byteOffset": 1143168,
      "componentType": 5126,
      "count": 28576,
      "max": [
        0.99744099378585815,
        0.98785197734832764
      ],
      "min": [
        0.0014649999793618917,
        0.00064699997892603278
      ],
      "type": "VEC2"
    },
    {
      "bufferView": 0,
      "byteOffset": 2841516,
      "componentType": 5125,
      "count": 72789,
      "max": [
        28575
      ],
      "min": [
        0
      ],
      "type": "SCALAR"
    }
  ],
  "asset": {
    "extras": {
      "author": "moxstudios (https://sketchfab.com/moxstudios)",
      "license": "CC-BY-4.0 (http://creativecommons.org/licenses/by/4.0/)",
      "source": "https://sketchfab.com/3d-models/stitch-free-777e1bbc9df74359ad460c318d453072",
      "title": "Stitch Free"
    },
    "generator": "Sketchfab-7.91.0",
    "version": "2.0"
  },
  "bufferViews": [
    {
      "buffer": 0,
      "byteLength": 3132672,
      "byteOffset": 0,
      "name": "floatBufferViews",
      "target": 34963
    },
    {
      "buffer": 0,
      "byteLength": 1371776,
      "byteOffset": 3132672,
      "byteStride": 8,
      "name": "floatBufferViews",
      "target": 34962
    },
    {
      "buffer": 0,
      "byteLength": 4115328,
      "byteOffset": 4504448,
      "byteStride": 12,
      "name": "floatBufferViews",
      "target": 34962
    }
  ],
  "buffers": [
    {
      "byteLength": 8619776,
      "uri": "scene.bin"
    }
  ],
  "images": [
    {
      "uri": "textures/stitch_shading_baseColor.png"
    }
  ],
  "materials": [
    {
      "doubleSided": true,
      "emissiveFactor": [
        0,
        0,
        0
      ],
      "name": "Material.001",
      "pbrMetallicRoughness": {
        "baseColorFactor": [
          0.009427772959295309,
          0.030812975203891969,
          0.035074965798719875,
          1
        ],
        "metallicFactor": 0,
        "roughnessFactor": 0.51310638551877275
      }
    },
    {
      "doubleSided": true,
      "emissiveFactor": [
        0,
        0,
        0
      ],
      "name": "stitch_shading",
      "pbrMetallicRoughness": {
        "baseColorFactor": [
          1,
          1,
          1,
          1
        ],
        "baseColorTexture": {
          "index": 0,
          "texCoord": 0
        },
        "metallicFactor": 0,
        "roughnessFactor": 0.5642557204144556
      }
    }
  ],
  "meshes": [
    {
      "primitives": [
        {
          "attributes": {
            "NORMAL": 1,
            "POSITION": 0,
            "TEXCOORD_0": 2
          },
          "indices": 3,
          "material": 0,
          "mode": 4
        }
      ]
    },
    {
      "primitives": [
        {
          "attributes": {
            "NORMAL": 5,
            "POSITION": 4,
            "TEXCOORD_0": 6
          },
          "indices": 7,
          "material": 1,
          "mode": 4
        }
      ]
    },
    {
      "primitives": [
        {
          "attributes": {
            "NORMAL": 9,
            "POSITION": 8,
            "TEXCOORD_0": 10
          },
          "indices": 11,
          "material": 1,
          "mode": 4
        }
      ]
    },
    {
      "primitives": [
        {
          "attributes": {
            "NORMAL": 13,
            "POSITION": 12,
            "TEXCOORD_0": 14
          },
          "indices": 15,
          "material": 1,
          "mode": 4
        }
      ]
    },
    {
      "primitives": [
        {
          "attributes": {
            "NORMAL": 17,
            "POSITION": 16,
            "TEXCOORD_0": 18
          },
          "indices": 19,
          "material": 1,
          "mode": 4
        }
      ]
    }
  ],
  "nodes": [
    {
      "children": [
        1
      ],
      "name": "RootNode (gltf orientation matrix)",
      "rotation": [
        -0.70710678118654746,
        -0,
        -0,
        0.70710678118654757
      ]
    },
    {
      "children": [
        2
      ],
      "name": "RootNode (model correction matrix)"
    },
    {
      "children": [
        3,
        4,
        5,
        6,
        7
      ],
      "name": "stitch_free_Reduced.obj.cleaner.materialmerger.gles"
    },
    {
      "mesh": 0,
      "name": ""
    },
    {
      "mesh": 1,
      "name": ""
    },
    {
      "mesh": 2,
      "name": ""
    },
    {
      "mesh": 3,
      "name": ""
    },
    {
      "mesh": 4,
      "name": ""
    }
  ],
  "samplers": [
    {
      "magFilter": 9729,
      "minFilter": 9987,
      "wrapS": 10497,
      "wrapT": 10497
    }
  ],
  "scene": 0,
  "scenes": [
    {
      "name": "OSG_Scene",
      "nodes": [
        0
      ]
    }
  ],
  "textures": [
    {
      "sampler": 0,
      "source": 0
    }
  ]
}

